<?xml version="1.0" standalone="no"?><svg xmlns:xlink="http://www.w3.org/1999/xlink" xmlns="http://www.w3.org/2000/svg" viewBox="0 0 1000 666.6666666666666" preserveAspectRatio="xMaxYMax slice"><g transform="scale(1.0070493454179255)"><rect x="0" y="0" width="993" height="662" fill="#ffffff"/><rect x="0" y="0" width="110.33333333333333" height="110.33333333333333" fill="#ffffff"/><rect x="0" y="0" width="55.17" height="55.17" fill="#ff4470"/><polygon points="55.17,0 55.17,55.17 0,55.17" fill="#ffe0e8"/><rect x="55.17" y="0" width="55.17" height="55.17" fill="#ff4773"/><polygon points="55.17,0 110.34,55.17 55.17,55.17" fill="#f6daf5"/><rect x="0" y="55.17" width="55.17" height="55.17" fill="#e188df"/><polygon points="0,55.17 55.17,55.17 0,110.34" fill="#d966d5"/><rect x="55.17" y="55.17" width="55.17" height="55.17" fill="#ff3c6b"/><polygon points="55.17,55.17 110.34,55.17 110.34,110.34" fill="#d453d0"/><rect x="110.33333333333333" y="0" width="110.33333333333333" height="110.33333333333333" fill="#ffffff"/><rect x="110.33" y="0" width="55.17" height="55.17" fill="#c104bb"/><polygon points="165.5,0 165.5,55.17 110.33,55.17" fill="#ce3ac9"/><rect x="165.5" y="0" width="55.17" height="55.17" fill="#ebaee9"/><polygon points="165.5,0 220.67000000000002,0 165.5,55.17" fill="#ff4974"/><rect x="110.33" y="55.17" width="55.17" height="55.17" fill="#ff9bb3"/><polygon points="110.33,55.17 165.5,55.17 165.5,110.34" fill="#ff8ea9"/><rect x="165.5" y="55.17" width="55.17" height="55.17" fill="#ff7d9c"/><polygon points="165.5,55.17 220.67000000000002,110.34 165.5,110.34" fill="#ff5f85"/><rect x="220.67" y="0" width="110.33" height="110.33" fill="#ffd1dc"/><rect x="220.67" y="0" width="110.33" height="110.33" fill="#fff2f5"/><rect x="331" y="0" width="110.33333333333333" height="110.33333333333333" fill="#ffffff"/><rect x="331" y="0" width="55.17" height="55.17" fill="#fbeffb"/><polygon points="386.17,0 386.17,55.17 331,55.17" fill="#ffc8d5"/><rect x="386.17" y="0" width="55.17" height="55.17" fill="#f7e1f7"/><polygon points="386.17,0 441.34000000000003,0 386.17,55.17" fill="#d24bce"/><rect x="331" y="55.17" width="55.17" height="55.17" fill="#e598e3"/><polygon points="331,55.17 386.17,55.17 386.17,110.34" fill="#e69ae4"/><rect x="386.17" y="55.17" width="55.17" height="55.17" fill="#ff89a5"/><polygon points="386.17,55.17 441.34000000000003,110.34 386.17,110.34" fill="#ff7798"/><rect x="441.3333333333333" y="0" width="110.33333333333333" height="110.33333333333333" fill="#ffffff"/><rect x="441.33" y="0" width="55.17" height="55.17" fill="#ffd6df"/><polygon points="496.5,0 496.5,55.17 441.33,55.17" fill="#ff89a5"/><rect x="496.5" y="0" width="55.17" height="55.17" fill="#e9a5e7"/><polygon points="496.5,0 551.67,55.17 496.5,55.17" fill="#ff6388"/><rect x="441.33" y="55.17" width="55.17" height="55.17" fill="#d451d0"/><polygon points="441.33,55.17 496.5,55.17 496.5,110.34" fill="#ff96af"/><rect x="496.5" y="55.17" width="55.17" height="55.17" fill="#e69ae4"/><polygon points="496.5,55.17 551.67,55.17 496.5,110.34" fill="#d249cd"/><rect x="551.67" y="0" width="110.33" height="110.33" fill="#fcf3fc"/><path d="M 551.67 0 A 110.33 110.33 0 0 1  662 110.33 L 551.67 0 A 110.33 110.33 0 0 0 662 110.33" fill="#ffedf2"/><rect x="662" y="0" width="110.33" height="110.33" fill="#ffdae3"/><polygon points="772.33,0 772.33,110.33 662,110.33" fill="#ff83a0"/><rect x="772.3333333333333" y="0" width="110.33333333333333" height="110.33333333333333" fill="#ffffff"/><rect x="772.33" y="0" width="55.17" height="55.17" fill="#ff8da8"/><polygon points="827.5,0 827.5,55.17 772.33,55.17" fill="#e79de4"/><rect x="827.5" y="0" width="55.17" height="55.17" fill="#d864d5"/><polygon points="827.5,0 882.67,55.17 827.5,55.17" fill="#ff4a75"/><rect x="772.33" y="55.17" width="55.17" height="55.17" fill="#e28ce0"/><polygon points="772.33,55.17 827.5,55.17 827.5,110.34" fill="#e491e1"/><rect x="827.5" y="55.17" width="55.17" height="55.17" fill="#ecb5eb"/><polygon points="827.5,55.17 882.67,55.17 827.5,110.34" fill="#ffb1c3"/><rect x="882.6666666666666" y="0" width="110.33333333333333" height="110.33333333333333" fill="#ffffff"/><rect x="882.67" y="0" width="55.17" height="55.17" fill="#ffa4b9"/><path d="M 882.67 55.17 A 55.17 55.17 0 0 0 937.8399999999999 0 L 882.67 0" fill="#e69be4"/><rect x="937.83" y="0" width="55.17" height="55.17" fill="#ffb5c7"/><path d="M 937.83 0 A 55.17 55.17 0 0 0 993 55.17 L 993 0" fill="#ffd5df"/><rect x="882.67" y="55.17" width="55.17" height="55.17" fill="#fdf5fc"/><path d="M 882.67 55.17 A 55.17 55.17 0 0 1 937.8399999999999 110.34 L 882.67 110.34" fill="#ff4c77"/><rect x="937.83" y="55.17" width="55.17" height="55.17" fill="#f4d5f3"/><path d="M 937.83 110.34 A 55.17 55.17 0 0 1  993 55.17 L 993 110.34" fill="#f0c1ee"/><rect x="0" y="110.33" width="110.33" height="110.33" fill="#dd78da"/><path d="M 0 110.33 A 110.33 110.33 0 0 1  110.33 220.66 L 0 110.33 A 110.33 110.33 0 0 0 110.33 220.66" fill="#ff97b0"/><rect x="110.33333333333333" y="110.33333333333333" width="110.33333333333333" height="110.33333333333333" fill="#ffffff"/><rect x="110.33" y="110.33" width="55.17" height="55.17" fill="#d24cce"/><path d="M 110.33 165.5 A 55.17 55.17 0 0 0 165.5 110.33 L 110.33 110.33" fill="#db6ed7"/><rect x="165.5" y="110.33" width="55.17" height="55.17" fill="#cf40cb"/><path d="M 165.5 110.33 A 55.17 55.17 0 0 0 220.67000000000002 165.5 L 220.67000000000002 110.33" fill="#e38fe0"/><rect x="110.33" y="165.5" width="55.17" height="55.17" fill="#ff87a3"/><path d="M 110.33 165.5 A 55.17 55.17 0 0 1 165.5 220.67000000000002 L 110.33 220.67000000000002" fill="#e494e2"/><rect x="165.5" y="165.5" width="55.17" height="55.17" fill="#ff416e"/><path d="M 165.5 220.67000000000002 A 55.17 55.17 0 0 1  220.67000000000002 165.5 L 220.67000000000002 220.67000000000002" fill="#e8a4e6"/><rect x="220.67" y="110.33" width="110.33" height="110.33" fill="#ff88a4"/><polygon points="220.67,110.33 331,110.33 331,220.66" fill="#ffa8bd"/><rect x="331" y="110.33333333333333" width="110.33333333333333" height="110.33333333333333" fill="#ffffff"/><rect x="331" y="110.33" width="55.17" height="55.17" fill="#d966d5"/><path d="M 331 165.5 A 55.17 55.17 0 0 1  386.17 110.33 L 386.17 165.5" fill="#c823c3"/><rect x="386.17" y="110.33" width="55.17" height="55.17" fill="#fcf2fc"/><path d="M 386.17 110.33 A 55.17 55.17 0 0 1 441.34000000000003 165.5 L 386.17 165.5" fill="#db6ed7"/><rect x="331" y="165.5" width="55.17" height="55.17" fill="#c924c3"/><path d="M 331 165.5 A 55.17 55.17 0 0 0 386.17 220.67000000000002 L 386.17 165.5" fill="#f8e3f7"/><rect x="386.17" y="165.5" width="55.17" height="55.17" fill="#ff6c8f"/><path d="M 386.17 220.67000000000002 A 55.17 55.17 0 0 0 441.34000000000003 165.5 L 386.17 165.5" fill="#ffaabe"/><rect x="441.33" y="110.33" width="110.33" height="110.33" fill="#ffd0db"/><polygon points="441.33,110.33 551.66,220.66 441.33,220.66" fill="#ff5d83"/><rect x="551.67" y="110.33" width="110.33" height="110.33" fill="#ff6a8d"/><rect x="551.67" y="110.33" width="110.33" height="110.33" fill="#e9a7e7"/><rect x="662" y="110.33333333333333" width="110.33333333333333" height="110.33333333333333" fill="#ffffff"/><rect x="662" y="110.33" width="55.17" height="55.17" fill="#d34ecf"/><circle cx="689.585" cy="137.915" r="27.585" fill="#c823c3"/><rect x="717.17" y="110.33" width="55.17" height="55.17" fill="#cc31c7"/><rect x="717.17" y="110.33" width="55.17" height="55.17" fill="#ff4a75"/><rect x="662" y="165.5" width="55.17" height="55.17" fill="#ffd1dc"/><circle cx="689.585" cy="193.085" r="27.585" fill="#e188df"/><rect x="717.17" y="165.5" width="55.17" height="55.17" fill="#d34ecf"/><rect x="717.17" y="165.5" width="55.17" height="55.17" fill="#fff6f8"/><rect x="772.3333333333333" y="110.33333333333333" width="110.33333333333333" height="110.33333333333333" fill="#ffffff"/><rect x="772.33" y="110.33" width="55.17" height="55.17" fill="#ffa5ba"/><path d="M 772.33 165.5 A 55.17 55.17 0 0 1  827.5 110.33 L 827.5 165.5" fill="#fff9fa"/><rect x="827.5" y="110.33" width="55.17" height="55.17" fill="#ff7a99"/><path d="M 827.5 110.33 A 55.17 55.17 0 0 1 882.67 165.5 L 827.5 165.5" fill="#ff6489"/><rect x="772.33" y="165.5" width="55.17" height="55.17" fill="#ffecf0"/><path d="M 772.33 165.5 A 55.17 55.17 0 0 0 827.5 220.67000000000002 L 827.5 165.5" fill="#db6dd7"/><rect x="827.5" y="165.5" width="55.17" height="55.17" fill="#d968d6"/><path d="M 827.5 220.67000000000002 A 55.17 55.17 0 0 0 882.67 165.5 L 827.5 165.5" fill="#d148cd"/><rect x="882.6666666666666" y="110.33333333333333" width="110.33333333333333" height="110.33333333333333" fill="#ffffff"/><rect x="882.67" y="110.33" width="55.17" height="55.17" fill="#f4d1f2"/><path d="M 882.67 165.5 A 55.17 55.17 0 0 1 937.8399999999999 110.33 L 937.8399999999999 124.1225 A 41.3775 41.3775 0 0 0 896.4625 165.5" fill="#e598e3"/><rect x="937.83" y="110.33" width="55.17" height="55.17" fill="#f1c7f0"/><path d="M 937.83 110.33 A 55.17 55.17 0 0 1 993 165.5 L 979.2075 165.5 A 41.3775 41.3775 0 0 0 937.83 124.1225" fill="#ffc1d0"/><rect x="882.67" y="165.5" width="55.17" height="55.17" fill="#ff7092"/><path d="M 882.67 165.5 A 55.17 55.17 0 0 0 937.8399999999999 220.67000000000002 L 937.8399999999999 206.8775 A 41.3775 41.3775 0 0 1 896.4625 165.5" fill="#f3d0f2"/><rect x="937.83" y="165.5" width="55.17" height="55.17" fill="#e8a3e6"/><path d="M 937.83 220.67000000000002 A 55.17 55.17 0 0 0 993 165.5 L 979.2075 165.5 A 41.3775 41.3775 0 0 1 937.83 206.8775" fill="#ffb1c4"/><rect x="0" y="220.67" width="110.33" height="110.33" fill="#e9a6e7"/><polygon points="0,220.67 110.33,331 0,331" fill="#f4d2f3"/><rect x="110.33333333333333" y="220.66666666666666" width="110.33333333333333" height="110.33333333333333" fill="#ffffff"/><rect x="110.33" y="220.67" width="55.17" height="55.17" fill="#d967d6"/><polygon points="165.5,220.67 165.5,275.84 110.33,275.84" fill="#ff809f"/><rect x="165.5" y="220.67" width="55.17" height="55.17" fill="#ffbbcb"/><polygon points="165.5,220.67 220.67000000000002,275.84 165.5,275.84" fill="#ffc2d1"/><rect x="110.33" y="275.83" width="55.17" height="55.17" fill="#d965d5"/><polygon points="110.33,275.83 165.5,275.83 110.33,331" fill="#ff577f"/><rect x="165.5" y="275.83" width="55.17" height="55.17" fill="#d452d0"/><polygon points="165.5,275.83 220.67000000000002,275.83 220.67000000000002,331" fill="#cc34c8"/><rect x="220.67" y="220.67" width="110.33" height="110.33" fill="#efbded"/><polygon points="220.67,220.67 331,220.67 220.67,331" fill="#d760d4"/><rect x="331" y="220.67" width="110.33" height="110.33" fill="#ffa4ba"/><rect x="331" y="220.67" width="110.33" height="110.33" fill="#edb7eb"/><rect x="441.3333333333333" y="220.66666666666666" width="110.33333333333333" height="110.33333333333333" fill="#ffffff"/><rect x="441.33" y="220.67" width="55.17" height="55.17" fill="#e28bdf"/><polygon points="496.5,220.67 496.5,275.84 441.33,275.84" fill="#fdf6fd"/><rect x="496.5" y="220.67" width="55.17" height="55.17" fill="#ffa7bc"/><polygon points="496.5,220.67 551.67,220.67 496.5,275.84" fill="#fff9fa"/><rect x="441.33" y="275.83" width="55.17" height="55.17" fill="#ffe5eb"/><polygon points="441.33,275.83 496.5,275.83 496.5,331" fill="#d350cf"/><rect x="496.5" y="275.83" width="55.17" height="55.17" fill="#ff4672"/><polygon points="496.5,275.83 551.67,331 496.5,331" fill="#fff3f6"/><rect x="551.6666666666666" y="220.66666666666666" width="110.33333333333333" height="110.33333333333333" fill="#ffffff"/><rect x="551.67" y="220.67" width="55.17" height="55.17" fill="#d966d5"/><path d="M 551.67 275.84 A 55.17 55.17 0 0 1 606.8399999999999 220.67 L 606.8399999999999 234.46249999999998 A 41.3775 41.3775 0 0 0 565.4625 275.84" fill="#ff97b0"/><rect x="606.83" y="220.67" width="55.17" height="55.17" fill="#ffe5ec"/><path d="M 606.83 220.67 A 55.17 55.17 0 0 1 662 275.84 L 648.2075 275.84 A 41.3775 41.3775 0 0 0 606.83 234.46249999999998" fill="#c61bc1"/><rect x="551.67" y="275.83" width="55.17" height="55.17" fill="#eaaae8"/><path d="M 551.67 275.83 A 55.17 55.17 0 0 0 606.8399999999999 331 L 606.8399999999999 317.2075 A 41.3775 41.3775 0 0 1 565.4625 275.83" fill="#ffb9ca"/><rect x="606.83" y="275.83" width="55.17" height="55.17" fill="#ffcad6"/><path d="M 606.83 331 A 55.17 55.17 0 0 0 662 275.83 L 648.2075 275.83 A 41.3775 41.3775 0 0 1 606.83 317.2075" fill="#ff7192"/><rect x="662" y="220.67" width="110.33" height="110.33" fill="#ffb3c5"/><polygon points="772.33,220.67 772.33,331 662,331" fill="#df7fdc"/><rect x="772.3333333333333" y="220.66666666666666" width="110.33333333333333" height="110.33333333333333" fill="#ffffff"/><rect x="772.33" y="220.67" width="55.17" height="55.17" fill="#cd34c8"/><circle cx="799.9150000000001" cy="248.255" r="27.585" fill="#ebb0ea"/><rect x="827.5" y="220.67" width="55.17" height="55.17" fill="#c20bbc"/><rect x="827.5" y="220.67" width="55.17" height="55.17" fill="#ff94ad"/><rect x="772.33" y="275.83" width="55.17" height="55.17" fill="#de7bdb"/><circle cx="799.9150000000001" cy="303.41499999999996" r="27.585" fill="#e596e2"/><rect x="827.5" y="275.83" width="55.17" height="55.17" fill="#fffcfd"/><rect x="827.5" y="275.83" width="55.17" height="55.17" fill="#ce3ac9"/><rect x="882.6666666666666" y="220.66666666666666" width="110.33333333333333" height="110.33333333333333" fill="#ffffff"/><rect x="882.67" y="220.67" width="55.17" height="55.17" fill="#ffecf1"/><path d="M 882.67 275.84 A 55.17 55.17 0 0 1  937.8399999999999 220.67 L 937.8399999999999 275.84" fill="#ff4470"/><rect x="937.83" y="220.67" width="55.17" height="55.17" fill="#c821c2"/><path d="M 937.83 220.67 A 55.17 55.17 0 0 1 993 275.84 L 937.83 275.84" fill="#e79de4"/><rect x="882.67" y="275.83" width="55.17" height="55.17" fill="#f9e6f8"/><path d="M 882.67 275.83 A 55.17 55.17 0 0 0 937.8399999999999 331 L 937.8399999999999 275.83" fill="#ffe7ec"/><rect x="937.83" y="275.83" width="55.17" height="55.17" fill="#fffcfc"/><path d="M 937.83 331 A 55.17 55.17 0 0 0 993 275.83 L 937.83 275.83" fill="#faedfa"/><rect x="0" y="331" width="110.33333333333333" height="110.33333333333333" fill="#ffffff"/><rect x="0" y="331" width="55.17" height="55.17" fill="#cd36c8"/><path d="M 0 331 A 55.17 55.17 0 0 1 55.17 386.17 L 0 386.17" fill="#de7bdb"/><rect x="55.17" y="331" width="55.17" height="55.17" fill="#c413bf"/><path d="M 55.17 386.17 A 55.17 55.17 0 0 1  110.34 331 L 110.34 386.17" fill="#ff6489"/><rect x="0" y="386.17" width="55.17" height="55.17" fill="#d454d0"/><path d="M 0 441.34000000000003 A 55.17 55.17 0 0 0 55.17 386.17 L 0 386.17" fill="#ffe1e8"/><rect x="55.17" y="386.17" width="55.17" height="55.17" fill="#ffdae3"/><path d="M 55.17 386.17 A 55.17 55.17 0 0 0 110.34 441.34000000000003 L 110.34 386.17" fill="#de7cdb"/><rect x="110.33" y="331" width="110.33" height="110.33" fill="#ffeff3"/><path d="M 110.33 441.33 A 110.33 110.33 0 0 1  220.66 331 L 110.33 441.33 A 110.33 110.33 0 0 0 220.66 331" fill="#c104bb"/><rect x="220.66666666666666" y="331" width="110.33333333333333" height="110.33333333333333" fill="#ffffff"/><rect x="220.67" y="331" width="55.17" height="55.17" fill="#fff0f3"/><polygon points="275.84,331 275.84,386.17 220.67,386.17" fill="#e595e2"/><rect x="275.83" y="331" width="55.17" height="55.17" fill="#ff5e84"/><polygon points="275.83,331 331,386.17 275.83,386.17" fill="#e187de"/><rect x="220.67" y="386.17" width="55.17" height="55.17" fill="#d043cc"/><polygon points="220.67,386.17 275.84,386.17 220.67,441.34000000000003" fill="#c002ba"/><rect x="275.83" y="386.17" width="55.17" height="55.17" fill="#ff7697"/><polygon points="275.83,386.17 331,386.17 331,441.34000000000003" fill="#c209bc"/><rect x="331" y="331" width="110.33" height="110.33" fill="#ca2cc5"/><polygon points="331,331 441.33,331 441.33,441.33" fill="#ce39c9"/><rect x="441.33" y="331" width="110.33" height="110.33" fill="#e187de"/><polygon points="441.33,331 551.66,441.33 441.33,441.33" fill="#c925c4"/><rect x="551.67" y="331" width="110.33" height="110.33" fill="#ffd5df"/><rect x="551.67" y="331" width="110.33" height="110.33" fill="#ff4874"/><rect x="662" y="331" width="110.33" height="110.33" fill="#ffacc0"/><path d="M 662 331 A 110.33 110.33 0 0 1  772.33 441.33 L 662 331 A 110.33 110.33 0 0 0 772.33 441.33" fill="#edb6eb"/><rect x="772.3333333333333" y="331" width="110.33333333333333" height="110.33333333333333" fill="#ffffff"/><rect x="772.33" y="331" width="55.17" height="55.17" fill="#ffd0db"/><polygon points="827.5,331 827.5,386.17 772.33,386.17" fill="#eeb9ec"/><rect x="827.5" y="331" width="55.17" height="55.17" fill="#c515bf"/><polygon points="827.5,331 882.67,331 827.5,386.17" fill="#ff3665"/><rect x="772.33" y="386.17" width="55.17" height="55.17" fill="#ff5f85"/><polygon points="772.33,386.17 827.5,386.17 827.5,441.34000000000003" fill="#ff84a1"/><rect x="827.5" y="386.17" width="55.17" height="55.17" fill="#c824c3"/><polygon points="827.5,386.17 882.67,441.34000000000003 827.5,441.34000000000003" fill="#ff7495"/><rect x="882.67" y="331" width="110.33" height="110.33" fill="#e084de"/><rect x="882.67" y="331" width="110.33" height="110.33" fill="#ffc0cf"/><rect x="0" y="441.33" width="110.33" height="110.33" fill="#ff3d6b"/><polygon points="0,441.33 110.33,551.66 0,551.66" fill="#ff5880"/><rect x="110.33" y="441.33" width="110.33" height="110.33" fill="#d659d2"/><polygon points="110.33,441.33 220.66,551.66 110.33,551.66" fill="#f3d1f2"/><rect x="220.66666666666666" y="441.3333333333333" width="110.33333333333333" height="110.33333333333333" fill="#ffffff"/><rect x="220.67" y="441.33" width="55.17" height="55.17" fill="#ecb1ea"/><polygon points="275.84,441.33 275.84,496.5 220.67,496.5" fill="#ffe0e7"/><rect x="275.83" y="441.33" width="55.17" height="55.17" fill="#ffdae3"/><polygon points="275.83,441.33 331,441.33 275.83,496.5" fill="#ffb4c6"/><rect x="220.67" y="496.5" width="55.17" height="55.17" fill="#ffb4c6"/><polygon points="220.67,496.5 275.84,496.5 275.84,551.67" fill="#efbded"/><rect x="275.83" y="496.5" width="55.17" height="55.17" fill="#ebade9"/><polygon points="275.83,496.5 331,551.67 275.83,551.67" fill="#cd36c8"/><rect x="331" y="441.3333333333333" width="110.33333333333333" height="110.33333333333333" fill="#ffffff"/><rect x="331" y="441.33" width="55.17" height="55.17" fill="#ffd0dc"/><path d="M 331 496.5 A 55.17 55.17 0 0 1 386.17 441.33 L 386.17 455.1225 A 41.3775 41.3775 0 0 0 344.7925 496.5" fill="#c30dbd"/><rect x="386.17" y="441.33" width="55.17" height="55.17" fill="#fffefe"/><path d="M 386.17 441.33 A 55.17 55.17 0 0 1 441.34000000000003 496.5 L 427.5475 496.5 A 41.3775 41.3775 0 0 0 386.17 455.1225" fill="#f8e2f7"/><rect x="331" y="496.5" width="55.17" height="55.17" fill="#ff416e"/><path d="M 331 496.5 A 55.17 55.17 0 0 0 386.17 551.67 L 386.17 537.8775 A 41.3775 41.3775 0 0 1 344.7925 496.5" fill="#ff6d90"/><rect x="386.17" y="496.5" width="55.17" height="55.17" fill="#c927c4"/><path d="M 386.17 551.67 A 55.17 55.17 0 0 0 441.34000000000003 496.5 L 427.5475 496.5 A 41.3775 41.3775 0 0 1 386.17 537.8775" fill="#fbeefa"/><rect x="441.3333333333333" y="441.3333333333333" width="110.33333333333333" height="110.33333333333333" fill="#ffffff"/><rect x="441.33" y="441.33" width="55.17" height="55.17" fill="#fff9fb"/><path d="M 441.33 496.5 A 55.17 55.17 0 0 0 496.5 441.33 L 441.33 441.33" fill="#d965d5"/><rect x="496.5" y="441.33" width="55.17" height="55.17" fill="#c413bf"/><path d="M 496.5 441.33 A 55.17 55.17 0 0 0 551.67 496.5 L 551.67 441.33" fill="#fbeffb"/><rect x="441.33" y="496.5" width="55.17" height="55.17" fill="#ffbdcc"/><path d="M 441.33 496.5 A 55.17 55.17 0 0 1 496.5 551.67 L 441.33 551.67" fill="#ff9db4"/><rect x="496.5" y="496.5" width="55.17" height="55.17" fill="#ff97b0"/><path d="M 496.5 551.67 A 55.17 55.17 0 0 1  551.67 496.5 L 551.67 551.67" fill="#f5d7f4"/><rect x="551.67" y="441.33" width="110.33" height="110.33" fill="#f4d5f3"/><path d="M 551.67 551.66 A 110.33 110.33 0 0 0 662 441.33 L 551.67 441.33" fill="#ffcbd8"/><rect x="662" y="441.33" width="110.33" height="110.33" fill="#c107bb"/><polygon points="772.33,441.33 772.33,551.66 662,551.66" fill="#ff7d9c"/><rect x="772.33" y="441.33" width="110.33" height="110.33" fill="#d75dd3"/><rect x="772.33" y="441.33" width="110.33" height="110.33" fill="#ffc9d6"/><rect x="882.6666666666666" y="441.3333333333333" width="110.33333333333333" height="110.33333333333333" fill="#ffffff"/><rect x="882.67" y="441.33" width="55.17" height="55.17" fill="#eaaae8"/><path d="M 882.67 496.5 A 55.17 55.17 0 0 0 937.8399999999999 441.33 L 882.67 441.33" fill="#e8a1e5"/><rect x="937.83" y="441.33" width="55.17" height="55.17" fill="#d147cd"/><path d="M 937.83 441.33 A 55.17 55.17 0 0 0 993 496.5 L 993 441.33" fill="#f9e9f9"/><rect x="882.67" y="496.5" width="55.17" height="55.17" fill="#d24bce"/><path d="M 882.67 496.5 A 55.17 55.17 0 0 1 937.8399999999999 551.67 L 882.67 551.67" fill="#ff7495"/><rect x="937.83" y="496.5" width="55.17" height="55.17" fill="#ffb5c7"/><path d="M 937.83 551.67 A 55.17 55.17 0 0 1  993 496.5 L 993 551.67" fill="#e596e2"/><rect x="0" y="551.6666666666666" width="110.33333333333333" height="110.33333333333333" fill="#ffffff"/><rect x="0" y="551.67" width="55.17" height="55.17" fill="#dc74d9"/><circle cx="27.585" cy="579.255" r="27.585" fill="#d65ad2"/><rect x="55.17" y="551.67" width="55.17" height="55.17" fill="#ff6c8f"/><rect x="55.17" y="551.67" width="55.17" height="55.17" fill="#ffa4ba"/><rect x="0" y="606.83" width="55.17" height="55.17" fill="#ff83a1"/><circle cx="27.585" cy="634.4150000000001" r="27.585" fill="#ff4e78"/><rect x="55.17" y="606.83" width="55.17" height="55.17" fill="#efc0ee"/><rect x="55.17" y="606.83" width="55.17" height="55.17" fill="#cd35c8"/><rect x="110.33" y="551.67" width="110.33" height="110.33" fill="#fef9fd"/><rect x="110.33" y="551.67" width="110.33" height="110.33" fill="#ff3b6a"/><rect x="220.66666666666666" y="551.6666666666666" width="110.33333333333333" height="110.33333333333333" fill="#ffffff"/><rect x="220.67" y="551.67" width="55.17" height="55.17" fill="#ffebf0"/><polygon points="275.84,551.67 275.84,606.8399999999999 220.67,606.8399999999999" fill="#ffecf1"/><rect x="275.83" y="551.67" width="55.17" height="55.17" fill="#c30fbe"/><polygon points="275.83,551.67 331,606.8399999999999 275.83,606.8399999999999" fill="#ff89a5"/><rect x="220.67" y="606.83" width="55.17" height="55.17" fill="#ff82a0"/><polygon points="220.67,606.83 275.84,606.83 275.84,662" fill="#f6dcf6"/><rect x="275.83" y="606.83" width="55.17" height="55.17" fill="#ff7394"/><polygon points="275.83,606.83 331,606.83 275.83,662" fill="#cf3eca"/><rect x="331" y="551.6666666666666" width="110.33333333333333" height="110.33333333333333" fill="#ffffff"/><rect x="331" y="551.67" width="55.17" height="55.17" fill="#e28bdf"/><path d="M 331 606.8399999999999 A 55.17 55.17 0 0 0 386.17 551.67 L 331 551.67" fill="#ff4773"/><rect x="386.17" y="551.67" width="55.17" height="55.17" fill="#f2ccf1"/><path d="M 386.17 551.67 A 55.17 55.17 0 0 0 441.34000000000003 606.8399999999999 L 441.34000000000003 551.67" fill="#f4d5f3"/><rect x="331" y="606.83" width="55.17" height="55.17" fill="#ff8ba7"/><path d="M 331 606.83 A 55.17 55.17 0 0 1 386.17 662 L 331 662" fill="#fffbfc"/><rect x="386.17" y="606.83" width="55.17" height="55.17" fill="#d145cc"/><path d="M 386.17 662 A 55.17 55.17 0 0 1  441.34000000000003 606.83 L 441.34000000000003 662" fill="#ff7293"/><rect x="441.33" y="551.67" width="110.33" height="110.33" fill="#c517c0"/><polygon points="441.33,551.67 551.66,551.67 441.33,662" fill="#d65cd2"/><rect x="551.6666666666666" y="551.6666666666666" width="110.33333333333333" height="110.33333333333333" fill="#ffffff"/><rect x="551.67" y="551.67" width="55.17" height="55.17" fill="#cb2dc6"/><circle cx="579.255" cy="579.255" r="27.585" fill="#d558d1"/><rect x="606.83" y="551.67" width="55.17" height="55.17" fill="#ffb1c3"/><rect x="606.83" y="551.67" width="55.17" height="55.17" fill="#ffa5ba"/><rect x="551.67" y="606.83" width="55.17" height="55.17" fill="#ffdae3"/><circle cx="579.255" cy="634.4150000000001" r="27.585" fill="#e79de4"/><rect x="606.83" y="606.83" width="55.17" height="55.17" fill="#eaace8"/><rect x="606.83" y="606.83" width="55.17" height="55.17" fill="#ffd8e1"/><rect x="662" y="551.67" width="110.33" height="110.33" fill="#f4d2f3"/><polygon points="662,551.67 772.33,551.67 772.33,662" fill="#d864d5"/><rect x="772.3333333333333" y="551.6666666666666" width="110.33333333333333" height="110.33333333333333" fill="#ffffff"/><rect x="772.33" y="551.67" width="55.17" height="55.17" fill="#f5d5f4"/><polygon points="827.5,551.67 827.5,606.8399999999999 772.33,606.8399999999999" fill="#ff567e"/><rect x="827.5" y="551.67" width="55.17" height="55.17" fill="#ff99b1"/><polygon points="827.5,551.67 882.67,551.67 827.5,606.8399999999999" fill="#ff8aa6"/><rect x="772.33" y="606.83" width="55.17" height="55.17" fill="#ffcdd9"/><polygon points="772.33,606.83 827.5,606.83 827.5,662" fill="#ca29c5"/><rect x="827.5" y="606.83" width="55.17" height="55.17" fill="#d65bd2"/><polygon points="827.5,606.83 882.67,662 827.5,662" fill="#cf3eca"/><rect x="882.67" y="551.67" width="110.33" height="110.33" fill="#d556d1"/><polygon points="882.67,551.67 993,662 882.67,662" fill="#f9e8f9"/></g></svg>